<mxfile host="app.diagrams.net" modified="2024-04-11T15:10:59.925Z" agent="Mozilla/5.0 (Windows NT 10.0; Win64; x64) AppleWebKit/537.36 (KHTML, like Gecko) Chrome/123.0.0.0 Safari/537.36" etag="3ycqTB-NJMGQ3S9NMAHi" version="24.2.3" type="github">
  <diagram name="第 1 页" id="pe9sap4QaWVrpEyMOnEe">
    <mxGraphModel dx="1221" dy="636" grid="1" gridSize="10" guides="1" tooltips="1" connect="1" arrows="1" fold="1" page="1" pageScale="1" pageWidth="827" pageHeight="1169" math="0" shadow="0">
      <root>
        <mxCell id="0" />
        <mxCell id="1" parent="0" />
        <mxCell id="uvk9hI2O3WgVnZL8qZCz-1" value="Actor" style="shape=umlActor;verticalLabelPosition=bottom;verticalAlign=top;html=1;" vertex="1" parent="1">
          <mxGeometry x="60" y="300" width="30" height="60" as="geometry" />
        </mxCell>
        <mxCell id="uvk9hI2O3WgVnZL8qZCz-2" value="标签管理" style="ellipse;whiteSpace=wrap;html=1;" vertex="1" parent="1">
          <mxGeometry x="160" y="110" width="120" height="40" as="geometry" />
        </mxCell>
        <mxCell id="uvk9hI2O3WgVnZL8qZCz-3" value="分类管理" style="ellipse;whiteSpace=wrap;html=1;" vertex="1" parent="1">
          <mxGeometry x="150" y="510" width="120" height="40" as="geometry" />
        </mxCell>
        <mxCell id="uvk9hI2O3WgVnZL8qZCz-4" value="博客管理" style="ellipse;whiteSpace=wrap;html=1;" vertex="1" parent="1">
          <mxGeometry x="160" y="330" width="120" height="40" as="geometry" />
        </mxCell>
        <mxCell id="uvk9hI2O3WgVnZL8qZCz-5" value="删除标签" style="ellipse;whiteSpace=wrap;html=1;" vertex="1" parent="1">
          <mxGeometry x="350" y="100" width="120" height="40" as="geometry" />
        </mxCell>
        <mxCell id="uvk9hI2O3WgVnZL8qZCz-6" value="修改标签" style="ellipse;whiteSpace=wrap;html=1;" vertex="1" parent="1">
          <mxGeometry x="330" y="50" width="120" height="40" as="geometry" />
        </mxCell>
        <mxCell id="uvk9hI2O3WgVnZL8qZCz-7" value="添加标签" style="ellipse;whiteSpace=wrap;html=1;" vertex="1" parent="1">
          <mxGeometry x="230" y="20" width="120" height="40" as="geometry" />
        </mxCell>
        <mxCell id="uvk9hI2O3WgVnZL8qZCz-8" value="《包含》" style="endArrow=open;endSize=12;dashed=1;html=1;rounded=0;exitX=1;exitY=0;exitDx=0;exitDy=0;entryX=0.5;entryY=1;entryDx=0;entryDy=0;" edge="1" parent="1" source="uvk9hI2O3WgVnZL8qZCz-2" target="uvk9hI2O3WgVnZL8qZCz-7">
          <mxGeometry width="160" relative="1" as="geometry">
            <mxPoint x="340" y="130" as="sourcePoint" />
            <mxPoint x="500" y="130" as="targetPoint" />
          </mxGeometry>
        </mxCell>
        <mxCell id="uvk9hI2O3WgVnZL8qZCz-10" value="《包含》" style="endArrow=open;endSize=12;dashed=1;html=1;rounded=0;exitX=0.936;exitY=0.283;exitDx=0;exitDy=0;entryX=0;entryY=0.5;entryDx=0;entryDy=0;exitPerimeter=0;" edge="1" parent="1" source="uvk9hI2O3WgVnZL8qZCz-2" target="uvk9hI2O3WgVnZL8qZCz-6">
          <mxGeometry width="160" relative="1" as="geometry">
            <mxPoint x="272" y="126" as="sourcePoint" />
            <mxPoint x="300" y="70" as="targetPoint" />
          </mxGeometry>
        </mxCell>
        <mxCell id="uvk9hI2O3WgVnZL8qZCz-11" value="《包含》" style="endArrow=open;endSize=12;dashed=1;html=1;rounded=0;exitX=1;exitY=0.5;exitDx=0;exitDy=0;" edge="1" parent="1" source="uvk9hI2O3WgVnZL8qZCz-2" target="uvk9hI2O3WgVnZL8qZCz-5">
          <mxGeometry width="160" relative="1" as="geometry">
            <mxPoint x="282" y="136" as="sourcePoint" />
            <mxPoint x="310" y="80" as="targetPoint" />
          </mxGeometry>
        </mxCell>
        <mxCell id="uvk9hI2O3WgVnZL8qZCz-12" value="添加博客" style="ellipse;whiteSpace=wrap;html=1;" vertex="1" parent="1">
          <mxGeometry x="320" y="230" width="120" height="40" as="geometry" />
        </mxCell>
        <mxCell id="uvk9hI2O3WgVnZL8qZCz-13" value="修改博客" style="ellipse;whiteSpace=wrap;html=1;" vertex="1" parent="1">
          <mxGeometry x="380" y="270" width="120" height="40" as="geometry" />
        </mxCell>
        <mxCell id="uvk9hI2O3WgVnZL8qZCz-14" value="删除博客" style="ellipse;whiteSpace=wrap;html=1;" vertex="1" parent="1">
          <mxGeometry x="380" y="320" width="120" height="40" as="geometry" />
        </mxCell>
        <mxCell id="uvk9hI2O3WgVnZL8qZCz-15" value="查看分类" style="ellipse;whiteSpace=wrap;html=1;" vertex="1" parent="1">
          <mxGeometry x="320" y="425" width="120" height="40" as="geometry" />
        </mxCell>
        <mxCell id="uvk9hI2O3WgVnZL8qZCz-16" value="添加分类" style="ellipse;whiteSpace=wrap;html=1;" vertex="1" parent="1">
          <mxGeometry x="320" y="475" width="120" height="40" as="geometry" />
        </mxCell>
        <mxCell id="uvk9hI2O3WgVnZL8qZCz-17" value="修改分类" style="ellipse;whiteSpace=wrap;html=1;" vertex="1" parent="1">
          <mxGeometry x="320" y="530" width="120" height="40" as="geometry" />
        </mxCell>
        <mxCell id="uvk9hI2O3WgVnZL8qZCz-19" value="删除" style="ellipse;whiteSpace=wrap;html=1;" vertex="1" parent="1">
          <mxGeometry x="320" y="580" width="120" height="40" as="geometry" />
        </mxCell>
        <mxCell id="uvk9hI2O3WgVnZL8qZCz-20" value="查看标签" style="ellipse;whiteSpace=wrap;html=1;" vertex="1" parent="1">
          <mxGeometry x="330" y="160" width="120" height="40" as="geometry" />
        </mxCell>
        <mxCell id="uvk9hI2O3WgVnZL8qZCz-21" value="《包含》" style="endArrow=open;endSize=12;dashed=1;html=1;rounded=0;exitX=1;exitY=1;exitDx=0;exitDy=0;entryX=0;entryY=0.5;entryDx=0;entryDy=0;" edge="1" parent="1" source="uvk9hI2O3WgVnZL8qZCz-2" target="uvk9hI2O3WgVnZL8qZCz-20">
          <mxGeometry width="160" relative="1" as="geometry">
            <mxPoint x="290" y="140" as="sourcePoint" />
            <mxPoint x="362" y="134" as="targetPoint" />
          </mxGeometry>
        </mxCell>
        <mxCell id="uvk9hI2O3WgVnZL8qZCz-22" value="《包含》" style="endArrow=open;endSize=12;dashed=1;html=1;rounded=0;exitX=0.5;exitY=0;exitDx=0;exitDy=0;entryX=0.086;entryY=0.767;entryDx=0;entryDy=0;entryPerimeter=0;" edge="1" parent="1" source="uvk9hI2O3WgVnZL8qZCz-4" target="uvk9hI2O3WgVnZL8qZCz-20">
          <mxGeometry width="160" relative="1" as="geometry">
            <mxPoint x="272" y="154" as="sourcePoint" />
            <mxPoint x="340" y="190" as="targetPoint" />
          </mxGeometry>
        </mxCell>
        <mxCell id="uvk9hI2O3WgVnZL8qZCz-24" value="查看博客" style="ellipse;whiteSpace=wrap;html=1;" vertex="1" parent="1">
          <mxGeometry x="320" y="360" width="120" height="40" as="geometry" />
        </mxCell>
      </root>
    </mxGraphModel>
  </diagram>
</mxfile>
